<?xml version="1.0" encoding="UTF-8" standalone="no"?>
<!-- Created with Inkscape (http://www.inkscape.org/) -->
<svg
   width="500mm"
   height="500mm"
   viewBox="0 0 500 500"
   version="1.1"
   id="svg1"
   xml:space="preserve"
   inkscape:version="1.3.2 (091e20e, 2023-11-25, custom)"
   sodipodi:docname="icon.svg"
   xmlns:inkscape="http://www.inkscape.org/namespaces/inkscape"
   xmlns:sodipodi="http://sodipodi.sourceforge.net/DTD/sodipodi-0.dtd"
   xmlns="http://www.w3.org/2000/svg"
   xmlns:svg="http://www.w3.org/2000/svg" xmlns:xlink="http://www.w3.org/1999/xlink">
  <defs>
    <animate xlink:href="#path1" attributeName="fill" values="#0c92f2;#000000" dur="1s" repeatCount="indefinite"></animate>
  </defs>
  <sodipodi:namedview
     id="namedview1"
     pagecolor="#ffffff"
     bordercolor="#111111"
     borderopacity="1"
     inkscape:showpageshadow="0"
     inkscape:pageopacity="0"
     inkscape:pagecheckerboard="1"
     inkscape:deskcolor="#d1d1d1"
     inkscape:document-units="mm"
     inkscape:zoom="0.36882295"
     inkscape:cx="805.26442"
     inkscape:cy="1080.4642"
     inkscape:window-width="2560"
     inkscape:window-height="1406"
     inkscape:window-x="-11"
     inkscape:window-y="-11"
     inkscape:window-maximized="1"
     inkscape:current-layer="layer1" /><defs
     id="defs1" /><g
     inkscape:label="Layer 1"
     inkscape:groupmode="layer"
     id="layer1"><g
       id="g3"
       transform="translate(5.2409618,-12.478697)"><g
         style="fill:none"
         id="g2"
         transform="matrix(8.8194444,0,0,8.8194444,132.33413,152.77671)"><g
           id="SVGRepo_bgCarrier"
           stroke-width="0" /><g
           id="SVGRepo_tracerCarrier"
           stroke-linecap="round"
           stroke-linejoin="round" /><g
           id="SVGRepo_iconCarrier"><path
             d="M 6.5766852,11.40164 C 1.3130222,14.761446 -3.3738343,20.84026 -5.4081083,26.416498 -6.0681257,28.225665 -4.5465437,29.809224 -2.6058907,29.809224 H -0.82495525 C -0.8248346,29.204618 -0.68321394,28.45334 -0.47384216,27.664835 -0.25833469,26.853235 0.05206913,25.918232 0.43896225,24.916184 1.2125934,22.912778 2.3128293,20.588283 3.6323989,18.373058 4.9472288,16.165761 6.5106404,14.014995 8.225531,12.399378 8.2679293,12.359393 8.3106723,12.319752 8.3534153,12.280112 8.3130852,12.267875 8.2732722,12.255466 8.2341486,12.242884 7.7441724,12.085183 7.1318616,11.83424 6.5766852,11.40164 Z"
             fill="#29d17a"
             id="path2-3"
             style="stroke-width:1.72351" /><path
             d="M 9.671798,16.445239 C 9.122516,16.781324 8.552035,17.225472 7.9648355,17.778718 6.4879614,19.170106 5.0663946,21.101297 3.8199534,23.193808 2.578252,25.278219 1.5408551,27.471038 0.81717127,29.345009 0.45542407,30.281908 0.17726717,31.125738 -0.00864773,31.825827 -0.20040523,32.548149 -0.27305113,33.041072 -0.27318903,33.306837 H 4.6095787 C 4.6097511,31.369614 5.2806956,27.781787 6.4948554,24.186377 7.3859091,21.548203 8.619596,18.751638 10.209533,16.532794 Z"
             fill="#29d17a"
             id="path3-1"
             style="stroke-width:1.72351" /><path
             d="M 13.0132,14.368067 C 11.848625,16.166893 10.857091,18.410211 10.083063,20.702649 8.9146968,24.162247 8.3338748,27.450873 8.3335298,28.995826 H 10.554787 C 12.495458,28.995826 14.057818,27.433638 14.187081,25.513995 14.409069,22.215028 14.918366,19.241632 15.50005,17.127059 14.924225,16.788907 14.479216,16.344587 14.151921,15.960244 13.774473,15.51713 13.394784,14.963712 13.0132,14.368067 Z"
             fill="#29d17a"
             id="path4-1"
             style="stroke-width:1.72351" /></g></g><g
         id="g1"
         transform="matrix(0.28099234,0,0,0.28099234,124.345,57.366489)"><path
           d="M 479.81714,780.43429 321.09714,835.29143 C 319.63429,836.02286 318.90286,836.02286 318.90286,836.02286 320.36571,836.02286 321.82857,836.75429 323.29143,837.48571 324.75429,838.94857 325.48571,839.68 326.21714,841.14286 V 838.21714 L 330.60571,678.03429 C 332.06857,635.61143 313.05143,578.56 286.72,544.91429 L 185.05143,416.91429 C 184.32,415.45143 183.58857,414.72 183.58857,414.72 183.58857,416.18286 183.58857,418.37714 182.85714,420.57143 182.12571,422.76572 181.39429,424.22857 179.93143,424.96 179.93143,424.96 180.66286,424.96 182.12571,424.22857 L 343.77143,378.14857 C 384.73143,366.44571 433.00571,332.06857 457.87429,296.96 L 551.49714,163.84 C 552.22857,162.37714 552.96,161.64571 552.96,161.64571 552.22857,162.37714 550.76571,162.37714 549.30286,162.37714 547.84,162.37714 546.37714,161.64571 545.64571,161.64571 545.64571,161.64571 546.37714,162.37714 547.10857,163.84 L 640.73143,296.96 C 664.86857,331.33714 713.87429,366.44571 754.83429,378.14857 L 916.48,424.22857 C 917.94286,424.96 918.67429,424.96 918.67429,424.96 917.94286,424.22857 916.48,422.03429 915.74857,420.57143 915.01714,418.37714 915.01714,416.18286 915.01714,414.72 915.01714,414.72 915.01714,415.45143 913.55429,416.91429 L 811.88571,544.91429 C 785.55428,578.56 766.53714,634.88 768,678.03429 L 770.19429,758.49143 772.38857,838.94857 V 841.87429 C 773.12,841.14286 773.85143,839.68 775.31429,838.21714 776.77714,837.48571 778.24,836.75429 779.70286,836.75429 779.70286,836.75429 778.97143,836.75429 777.50857,836.02286 L 618.78857,781.16571 C 579.29143,766.53714 519.31428,766.53714 479.81714,780.43429 Z M 748.98286,917.94286 C 808.22857,938.42286 862.35429,898.92571 860.89143,836.02286 L 858.69714,755.56571 856.50286,675.10857 C 855.77143,653.16571 868.20571,616.59429 881.37143,599.04 L 983.04,471.04 C 1022.5371,421.30286 1002.0571,356.93714 940.61714,339.38286 L 778.97143,293.30286 C 757.76,287.45143 725.57714,264.77714 712.41143,246.49143 L 618.78857,113.37143 C 582.94857,62.171429 515.65714,62.171429 479.81714,113.37143 L 386.19429,246.49143 C 373.02857,264.77714 341.57714,287.45143 319.63429,293.30286 L 157.98857,339.38286 C 96.548571,356.93714 76.068571,421.30286 115.56571,471.04 L 217.23429,599.04 C 231.13143,616.59429 242.83429,653.16571 242.10286,675.10857 L 237.71429,835.29143 C 236.25143,898.19429 289.64572,937.69143 349.62286,917.21143 L 508.34286,862.35429 C 529.55429,855.04 569.05143,855.04 590.26286,862.35429 Z"
           fill="#0c92f2"
           id="path1" /><path
           d="M 548.57143,678.76571 C 490.05714,678.76571 423.49714,706.56 423.49714,706.56 423.49714,706.56 434.46857,642.19429 416.91429,584.41143 399.36,526.62857 351.08571,473.23429 351.08571,473.23429 351.08571,473.23429 427.88571,452.75429 475.42857,416.91429 522.97143,381.07429 548.57143,329.14286 548.57143,329.14286 548.57143,329.14286 582.94857,381.07429 629.02857,416.91429 675.84,452.02286 746.05714,473.23429 746.05714,473.23429 746.05714,473.23429 705.82857,517.85143 687.54286,577.09714 669.25714,636.34286 673.64571,706.56 673.64571,706.56 673.64571,706.56 607.08571,678.76571 548.57143,678.76571 Z"
           fill="#a8c8e6"
           id="path2" /><path
           d="M 548.57143,678.76571 C 492.25143,673.64571 423.49714,706.56 423.49714,706.56 423.49714,706.56 434.46857,642.19429 416.91429,584.41143 399.36,526.62857 351.08571,473.23429 351.08571,473.23429 L 549.30286,513.46286 C 552.96,659.01714 550.76571,626.10286 548.57143,678.76571 Z"
           fill="#61b6f2"
           id="path3" /><path
           d="M 551.49714,678.76571 C 607.81714,673.64571 676.57143,706.56 676.57143,706.56 676.57143,706.56 665.6,642.19429 683.15429,584.41143 700.70857,526.62857 748.98286,473.23429 748.98286,473.23429 L 550.76571,513.46286 C 547.10857,659.01714 549.30286,626.10286 551.49714,678.76571 Z"
           fill="#fc830a"
           id="path4" /></g></g></g></svg>
